<svg xmlns="http://www.w3.org/2000/svg" viewBox="0 0 72 72" fill="none" stroke="#9a6843" stroke-width="1.8" stroke-linecap="round" stroke-linejoin="round">
  <path d="M33.6 36.2 62 14.3c2.3-1.8 4.8.9 2.7 3L43.2 39.8"/>
  <path d="M33.6 35.8 62 57.7c2.3 1.8 4.8-.9 2.7-3L43.2 32.2"/>
  <circle cx="35.3" cy="36" r="2.8"/>
  <path d="M30.8 33.4c-5.2-7.2-10.5-11.2-15.2-11.2-5.8 0-9.6 4.1-9.6 9 0 5 3.9 8.8 9.1 8.8 4.7 0 9.5-2.1 15.7-6.6Z"/>
  <path d="M30.8 38.6c-5.7 8.1-11.8 12.8-17.1 12.8-6.4 0-10.7-4.5-10.7-10 0-5.1 4-9.2 9.5-9.2 5 0 10.5 2.2 18.3 6.4Z"/>
  <path d="M11.4 27.8c3.6-.6 7.3.8 11.2 4.1M8.9 42.3c4.1.5 8.7-1.2 13.7-5"/>
</svg>